<svg xmlns="http://www.w3.org/2000/svg" viewBox="0 0 1440 320" preserveAspectRatio="xMidYMax slice" fill="none">
  <defs>
    <linearGradient id="sky" x1="0" y1="0" x2="0" y2="1">
      <stop offset="0%" stop-color="#FDE8F3"/>
      <stop offset="45%" stop-color="#F8D4E8"/>
      <stop offset="100%" stop-color="#F4F6F9"/>
    </linearGradient>
    <linearGradient id="sun" x1="0" y1="0" x2="1" y2="1">
      <stop offset="0%" stop-color="#FFD88A"/>
      <stop offset="100%" stop-color="#FFB347"/>
    </linearGradient>
  </defs>
  <rect width="1440" height="320" fill="url(#sky)"/>
  <circle cx="1180" cy="72" r="46" fill="url(#sun)" opacity="0.9"/>
  <ellipse cx="220" cy="58" rx="88" ry="28" fill="#fff" opacity="0.55"/>
  <ellipse cx="360" cy="48" rx="64" ry="22" fill="#fff" opacity="0.45"/>
  <ellipse cx="980" cy="42" rx="110" ry="30" fill="#fff" opacity="0.5"/>
  <path d="M0 220 L120 180 L220 210 L340 150 L460 200 L580 130 L700 190 L820 160 L940 205 L1060 145 L1180 195 L1320 165 L1440 210 L1440 320 L0 320 Z" fill="#E8B4D4" opacity="0.55"/>
  <path d="M0 250 L90 230 L200 255 L310 215 L420 245 L540 220 L660 250 L780 225 L900 255 L1020 230 L1140 250 L1260 235 L1440 260 L1440 320 L0 320 Z" fill="#D49EC4" opacity="0.65"/>
  <path d="M0 275 L80 265 L180 280 L300 260 L400 285 L520 268 L640 282 L760 270 L880 285 L1000 272 L1120 285 L1240 275 L1440 288 L1440 320 L0 320 Z" fill="#C48AB8" opacity="0.75"/>
</svg>
